<mxfile host="65bd71144e">
    <diagram id="PJAu8mskoVcZsCH-VlCt" name="Page-1">
        <mxGraphModel dx="1702" dy="1473" grid="1" gridSize="10" guides="1" tooltips="1" connect="1" arrows="1" fold="1" page="0" pageScale="1" pageWidth="850" pageHeight="1100" math="0" shadow="0">
            <root>
                <mxCell id="0"/>
                <mxCell id="1" parent="0"/>
                <mxCell id="5" value="CreateSqlConnection" style="rounded=1;whiteSpace=wrap;html=1;" parent="1" vertex="1">
                    <mxGeometry x="-110" y="-380" width="160" height="50" as="geometry"/>
                </mxCell>
                <mxCell id="7" value="_registerConnection" style="rounded=1;whiteSpace=wrap;html=1;" parent="1" vertex="1">
                    <mxGeometry x="150" y="-310" width="160" height="50" as="geometry"/>
                </mxCell>
                <mxCell id="12" value="_getConnections" style="rounded=1;whiteSpace=wrap;html=1;" vertex="1" parent="1">
                    <mxGeometry x="150" y="-380" width="160" height="50" as="geometry"/>
                </mxCell>
                <mxCell id="13" value="CloseSqlConnection" style="rounded=1;whiteSpace=wrap;html=1;" vertex="1" parent="1">
                    <mxGeometry x="-110" y="-310" width="160" height="50" as="geometry"/>
                </mxCell>
                <mxCell id="15" value="GetSqlConnection" style="rounded=1;whiteSpace=wrap;html=1;" vertex="1" parent="1">
                    <mxGeometry x="-110" y="-450" width="160" height="50" as="geometry"/>
                </mxCell>
            </root>
        </mxGraphModel>
    </diagram>
</mxfile>